<svg version="1.2" xmlns="http://www.w3.org/2000/svg" viewBox="0 0 512 512" width="512" height="512">
	<title>coins-solid (1)-svg</title>
	<style>
		.s0 { fill: #000000 } 
	</style>
	<path class="s0" d="m478 103.4c0 15.6-12.4 30-33.3 41.6-25.2 14-62.9 23.8-106.1 26.8-3.2-1.6-6.4-3-9.8-4.3-34.1-14.3-79.6-22.5-128.3-22.5-7.2 0-14.2 0.2-21.2 0.5l-1-0.5c-20.9-11.6-33.3-26-33.3-41.6 0-38.4 74.6-69.4 166.5-69.4 91.9 0 166.5 31 166.5 69.4zm-304.6 70.3c8.8-0.6 17.9-1 27.1-1 53.9 0 101.8 10.7 132.2 27.3 21.6 11.7 34.3 26.3 34.3 42.1q0 5.2-1.8 10.2c-4 11.4-14.8 21.9-30.4 30.8-0.1 0-0.2 0-0.3 0.1-0.3 0.2-0.5 0.3-0.8 0.5-30.4 16.8-78.7 27.7-133.2 27.7-51.7 0-97.9-9.8-128.5-25.2-1.7-0.8-3.2-1.7-4.8-2.5-20.8-11.6-33.2-26-33.2-41.6 0-30.2 46.3-55.9 111-65.4 9.1-1.3 18.6-2.3 28.4-3zm221.4 68.4c0-19-9.2-34.6-20.9-46.3 24.5-3.8 47-9.9 66-17.8 14.2-5.9 27.3-13.1 38.1-22.1v30.7c0 16.8-14.3 32.2-38 44.2-12.6 6.4-28.1 11.8-45.4 16 0.1-1.6 0.1-3 0.1-4.6zm-27.7 83.3c0 15.6-12.4 30-33.3 41.6-1.6 0.9-3.1 1.6-4.8 2.5-30.5 15.4-76.7 25.2-128.4 25.2-54.5 0-102.8-10.9-133.2-27.7-20.9-11.6-33.3-26-33.3-41.6v-30.7c10.8 8.9 23.9 16.2 38.1 22.1 34.2 14.3 79.7 22.4 128.4 22.4 48.7 0 94.2-8.1 128.4-22.4 6.8-2.8 13.3-6 19.5-9.5 5.2-2.9 10.2-6.2 14.9-9.7 1.3-0.9 2.5-2 3.7-2.9v2.9 5zm27.7 0v-27.8-22.5c16.5-3.6 31.7-8.2 45.2-13.8 14.2-5.9 27.3-13.2 38.1-22.1v30.7c0 9.1-4.3 18.2-12.9 26.8-14.2 14.1-39 25.7-70.5 33.3 0.1-1.5 0.1-3.1 0.1-4.6zm-194.2 97.1c48.7 0 94.2-8.2 128.4-22.5 14.2-5.9 27.3-13.2 38.1-22.1v30.7c0 38.3-74.6 69.4-166.5 69.4-91.9 0-166.5-31.1-166.5-69.4v-30.7c10.8 8.9 23.9 16.2 38.1 22.1 34.2 14.3 79.7 22.5 128.4 22.5z"/>
	<path class="s0" d="m449.1 342.3c-4.4-4.4-11.6-4.4-16 0l-56.5 56.5c-4.4 4.5-4.4 11.6 0 16 4.4 4.5 11.6 4.5 16 0l37.2-37.2v108.4c0 6.2 5.1 11.3 11.3 11.3 6.3 0 11.3-5.1 11.3-11.3v-108.4l37.3 37.2c4.4 4.4 11.6 4.4 16 0 4.4-4.4 4.4-11.6 0-16l-56.5-56.5z"/>
</svg>