<svg width="1512" height="600" viewBox="0 0 1512 600" fill="none" xmlns="http://www.w3.org/2000/svg">
<g clip-path="url(#clip0_13_294)">
<path d="M0 404L36.12 397.3C72.24 390.7 144.48 377.3 216.384 375.8C288.456 374.3 360.024 384.7 432.096 396.8C504 409 576.24 423 648.144 419.2C720.216 415.3 791.784 393.7 863.856 381.8C935.76 370 1008 368 1079.9 370.5C1151.98 373 1223.54 380 1295.62 392.2C1367.52 404.3 1439.76 421.7 1475.88 430.3L1512 439V601H1475.88C1439.76 601 1367.52 601 1295.62 601C1223.54 601 1151.98 601 1079.9 601C1008 601 935.76 601 863.856 601C791.784 601 720.216 601 648.144 601C576.24 601 504 601 432.096 601C360.024 601 288.456 601 216.384 601C144.48 601 72.24 601 36.12 601H0V404Z" fill="#FFF59D"/>
<path d="M0 443L36.12 438.2C72.24 433.3 144.48 423.7 216.384 426.7C288.456 429.7 360.024 445.3 432.096 452.5C504 459.7 576.24 458.3 648.144 448.8C720.216 439.3 791.784 421.7 863.856 412.2C935.76 402.7 1008 401.3 1079.9 411.2C1151.98 421 1223.54 442 1295.62 442.7C1367.52 443.3 1439.76 423.7 1475.88 413.8L1512 404V601H1475.88C1439.76 601 1367.52 601 1295.62 601C1223.54 601 1151.98 601 1079.9 601C1008 601 935.76 601 863.856 601C791.784 601 720.216 601 648.144 601C576.24 601 504 601 432.096 601C360.024 601 288.456 601 216.384 601C144.48 601 72.24 601 36.12 601H0V443Z" fill="#D0DB7F"/>
<path d="M0 461L36.12 459C72.24 457 144.48 453 216.384 459.7C288.456 466.3 360.024 483.7 432.096 489C504 494.3 576.24 487.7 648.144 482.5C720.216 477.3 791.784 473.7 863.856 474C935.76 474.3 1008 478.7 1079.9 484.2C1151.98 489.7 1223.54 496.3 1295.62 492.5C1367.52 488.7 1439.76 474.3 1475.88 467.2L1512 460V601H1475.88C1439.76 601 1367.52 601 1295.62 601C1223.54 601 1151.98 601 1079.9 601C1008 601 935.76 601 863.856 601C791.784 601 720.216 601 648.144 601C576.24 601 504 601 432.096 601C360.024 601 288.456 601 216.384 601C144.48 601 72.24 601 36.12 601H0V461Z" fill="#A1C164"/>
<path d="M0 507L36.12 509C72.24 511 144.48 515 216.384 511.5C288.456 508 360.024 497 432.096 496.2C504 495.3 576.24 504.7 648.144 509.3C720.216 514 791.784 514 863.856 513.8C935.76 513.7 1008 513.3 1079.9 510.2C1151.98 507 1223.54 501 1295.62 500C1367.52 499 1439.76 503 1475.88 505L1512 507V601H1475.88C1439.76 601 1367.52 601 1295.62 601C1223.54 601 1151.98 601 1079.9 601C1008 601 935.76 601 863.856 601C791.784 601 720.216 601 648.144 601C576.24 601 504 601 432.096 601C360.024 601 288.456 601 216.384 601C144.48 601 72.24 601 36.12 601H0V507Z" fill="#70A84E"/>
<path d="M0 555L36.12 550.2C72.24 545.3 144.48 535.7 216.384 535.8C288.456 536 360.024 546 432.096 551.2C504 556.3 576.24 556.7 648.144 551.5C720.216 546.3 791.784 535.7 863.856 534.5C935.76 533.3 1008 541.7 1079.9 546.7C1151.98 551.7 1223.54 553.3 1295.62 552.3C1367.52 551.3 1439.76 547.7 1475.88 545.8L1512 544V601H1475.88C1439.76 601 1367.52 601 1295.62 601C1223.54 601 1151.98 601 1079.9 601C1008 601 935.76 601 863.856 601C791.784 601 720.216 601 648.144 601C576.24 601 504 601 432.096 601C360.024 601 288.456 601 216.384 601C144.48 601 72.24 601 36.12 601H0V555Z" fill="#388E3C"/>
</g>
<defs>
<clipPath id="clip0_13_294">
<rect width="1512" height="600" fill="white"/>
</clipPath>
</defs>
</svg>
